# xmcd CD database file
#
# Track frame offsets:
#	150
#	41017
#	65418
#	102017
#	155144
#	178596
#	218485
#	228071
#	260526
#	292692
#
# Disc length: 4343 seconds
#
# Revision: 0
# Processed by: cddbd v1.5.2PL0 Copyright (c) Steve Scherf et al.
# Submitted via: CDex 1.70beta2
#
DISCID=7f10f50a
DTITLE=Drew Gress - The Sky Inside
DYEAR=2011
DGENRE=Jazz
TTITLE0=No Saint
TTITLE1=In Streamline
TTITLE2=Long Story
TTITLE3=The Sky Inside
TTITLE4=Kernel
TTITLE5=Dreampop
TTITLE6=Jacquard
TTITLE7=Delve
TTITLE8=Zaftig Redux
TTITLE9=Long Story Short
EXTD=YEAR: 2011
EXTT0=
EXTT1=
EXTT2=
EXTT3=
EXTT4=
EXTT5=
EXTT6=
EXTT7=
EXTT8=
EXTT9=
PLAYORDER=
